<svg width="268" height="45" viewBox="0 0 268 45" fill="none" xmlns="http://www.w3.org/2000/svg">
<path d="M33 4H4C1.79086 4 0 5.79086 0 8C0 10.2091 1.79086 12 4 12H33C35.2091 12 37 10.2091 37 8C37 5.79086 35.2091 4 33 4Z" fill="#9D65A4"/>
<path d="M39 16H10C7.79086 16 6 17.7909 6 20C6 22.2091 7.79086 24 10 24H39C41.2091 24 43 22.2091 43 20C43 17.7909 41.2091 16 39 16Z" fill="#918FB3"/>
<path d="M34 29H5C2.79086 29 1 30.7909 1 33C1 35.2091 2.79086 37 5 37H34C36.2091 37 38 35.2091 38 33C38 30.7909 36.2091 29 34 29Z" fill="#918FB3"/>
<path d="M68.8261 33.4901C68.4207 33.4901 68.0901 33.3727 67.8341 33.1381C67.5994 32.8821 67.4821 32.5514 67.4821 32.1461V13.0101H60.6021C60.2181 13.0101 59.9194 12.9141 59.7061 12.7221C59.4927 12.5301 59.3861 12.2527 59.3861 11.8901C59.3861 11.5274 59.4927 11.2501 59.7061 11.0581C59.9194 10.8661 60.2181 10.7701 60.6021 10.7701H77.0181C77.4021 10.7701 77.7007 10.8661 77.9141 11.0581C78.1274 11.2501 78.2341 11.5274 78.2341 11.8901C78.2341 12.2527 78.1274 12.5301 77.9141 12.7221C77.7007 12.9141 77.4021 13.0101 77.0181 13.0101H70.1381V32.1461C70.1381 32.5514 70.0207 32.8821 69.7861 33.1381C69.5514 33.3727 69.2314 33.4901 68.8261 33.4901ZM90.4096 29.7141C90.6442 29.7141 90.8469 29.8101 91.0176 30.0021C91.1882 30.1941 91.2736 30.4394 91.2736 30.7381C91.2736 31.2714 90.9002 31.7621 90.1536 32.2101C89.3856 32.6581 88.5749 32.9994 87.7216 33.2341C86.8682 33.4474 86.0362 33.5541 85.2256 33.5541C82.8149 33.5541 80.9056 32.8394 79.4976 31.4101C78.1109 29.9807 77.4176 28.0074 77.4176 25.4901C77.4176 23.8901 77.7269 22.4821 78.3456 21.2661C78.9642 20.0287 79.8282 19.0687 80.9376 18.3861C82.0682 17.7034 83.3482 17.3621 84.7776 17.3621C86.8042 17.3621 88.4149 18.0234 89.6096 19.3461C90.8042 20.6687 91.4016 22.4607 91.4016 24.7221C91.4016 25.1487 91.3162 25.4581 91.1456 25.6501C90.9749 25.8421 90.6976 25.9381 90.3136 25.9381H80.0096C80.2016 29.6074 81.9402 31.4421 85.2256 31.4421C86.0576 31.4421 86.7722 31.3354 87.3696 31.1221C87.9669 30.8874 88.6069 30.5781 89.2896 30.1941C89.8442 29.8741 90.2176 29.7141 90.4096 29.7141ZM84.8096 19.3781C83.4442 19.3781 82.3456 19.8047 81.5136 20.6581C80.7029 21.5114 80.2229 22.7167 80.0736 24.2741H89.1296C89.0869 22.6954 88.6922 21.4901 87.9456 20.6581C87.1989 19.8047 86.1536 19.3781 84.8096 19.3781ZM100.469 33.5541C99.4872 33.5541 98.5486 33.4367 97.6526 33.2021C96.7779 32.9674 95.9992 32.6367 95.3166 32.2101C94.9326 31.9541 94.6552 31.7194 94.4846 31.5061C94.3352 31.2714 94.2606 30.9941 94.2606 30.6741C94.2606 30.3967 94.3352 30.1727 94.4846 30.0021C94.6552 29.8101 94.8686 29.7141 95.1246 29.7141C95.3806 29.7141 95.7539 29.8741 96.2446 30.1941C96.8846 30.5781 97.5139 30.8874 98.1326 31.1221C98.7726 31.3354 99.5619 31.4421 100.501 31.4421C101.653 31.4421 102.549 31.2394 103.189 30.8341C103.829 30.4287 104.149 29.8421 104.149 29.0741C104.149 28.6047 104.031 28.2314 103.797 27.9541C103.562 27.6554 103.157 27.3994 102.581 27.1861C102.005 26.9514 101.162 26.7167 100.053 26.4821C98.1752 26.0767 96.8312 25.5327 96.0206 24.8501C95.2099 24.1674 94.8046 23.2394 94.8046 22.0661C94.8046 21.1487 95.0606 20.3381 95.5726 19.6341C96.0846 18.9301 96.7886 18.3754 97.6846 17.9701C98.6019 17.5647 99.6366 17.3621 100.789 17.3621C101.621 17.3621 102.421 17.4794 103.189 17.7141C103.978 17.9274 104.671 18.2367 105.269 18.6421C105.994 19.1541 106.357 19.6874 106.357 20.2421C106.357 20.5194 106.271 20.7541 106.101 20.9461C105.93 21.1381 105.727 21.2341 105.493 21.2341C105.237 21.2341 104.853 21.0527 104.341 20.6901C103.743 20.3061 103.178 20.0074 102.645 19.7941C102.111 19.5807 101.45 19.4741 100.661 19.4741C99.6579 19.4741 98.8472 19.6981 98.2286 20.1461C97.6312 20.5941 97.3326 21.1914 97.3326 21.9381C97.3326 22.4074 97.4392 22.7914 97.6526 23.0901C97.8872 23.3674 98.2606 23.6234 98.7726 23.8581C99.3059 24.0714 100.063 24.2847 101.045 24.4981C102.495 24.8181 103.615 25.1701 104.405 25.5541C105.215 25.9381 105.791 26.4074 106.133 26.9621C106.474 27.5167 106.645 28.2207 106.645 29.0741C106.645 30.4181 106.079 31.5061 104.949 32.3381C103.818 33.1487 102.325 33.5541 100.469 33.5541ZM117.639 31.4421C118.386 31.5061 118.759 31.8474 118.759 32.4661C118.759 32.8287 118.621 33.1061 118.343 33.2981C118.087 33.4687 117.693 33.5327 117.159 33.4901L116.295 33.4261C114.589 33.2981 113.33 32.7861 112.519 31.8901C111.709 30.9941 111.303 29.6394 111.303 27.8261V19.7941H109.159C108.797 19.7941 108.509 19.7087 108.295 19.5381C108.103 19.3461 108.007 19.1007 108.007 18.8021C108.007 18.4821 108.103 18.2261 108.295 18.0341C108.509 17.8421 108.797 17.7461 109.159 17.7461H111.303V14.1301C111.303 13.7247 111.421 13.4154 111.655 13.2021C111.89 12.9674 112.21 12.8501 112.615 12.8501C112.999 12.8501 113.309 12.9674 113.543 13.2021C113.778 13.4154 113.895 13.7247 113.895 14.1301V17.7461H117.447C117.789 17.7461 118.055 17.8421 118.247 18.0341C118.461 18.2261 118.567 18.4821 118.567 18.8021C118.567 19.1007 118.461 19.3461 118.247 19.5381C118.055 19.7087 117.789 19.7941 117.447 19.7941H113.895V27.9541C113.895 29.1274 114.13 29.9807 114.599 30.5141C115.09 31.0261 115.815 31.3141 116.775 31.3781L117.639 31.4421ZM133.378 29.7141C133.613 29.7141 133.816 29.8101 133.986 30.0021C134.157 30.1941 134.242 30.4394 134.242 30.7381C134.242 31.2714 133.869 31.7621 133.122 32.2101C132.354 32.6581 131.544 32.9994 130.69 33.2341C129.837 33.4474 129.005 33.5541 128.194 33.5541C125.784 33.5541 123.874 32.8394 122.466 31.4101C121.08 29.9807 120.386 28.0074 120.386 25.4901C120.386 23.8901 120.696 22.4821 121.314 21.2661C121.933 20.0287 122.797 19.0687 123.906 18.3861C125.037 17.7034 126.317 17.3621 127.746 17.3621C129.773 17.3621 131.384 18.0234 132.578 19.3461C133.773 20.6687 134.37 22.4607 134.37 24.7221C134.37 25.1487 134.285 25.4581 134.114 25.6501C133.944 25.8421 133.666 25.9381 133.282 25.9381H122.978C123.17 29.6074 124.909 31.4421 128.194 31.4421C129.026 31.4421 129.741 31.3354 130.338 31.1221C130.936 30.8874 131.576 30.5781 132.258 30.1941C132.813 29.8741 133.186 29.7141 133.378 29.7141ZM127.778 19.3781C126.413 19.3781 125.314 19.8047 124.482 20.6581C123.672 21.5114 123.192 22.7167 123.042 24.2741H132.098C132.056 22.6954 131.661 21.4901 130.914 20.6581C130.168 19.8047 129.122 19.3781 127.778 19.3781Z" fill="#918FB3"/>
<path d="M140.269 33.5221C139.651 33.5221 139.149 33.3301 138.765 32.9461C138.403 32.5621 138.221 32.0607 138.221 31.4421V12.6581C138.221 12.0394 138.403 11.5487 138.765 11.1861C139.149 10.8021 139.651 10.6101 140.269 10.6101C140.909 10.6101 141.411 10.8021 141.773 11.1861C142.157 11.5487 142.349 12.0394 142.349 12.6581V31.4421C142.349 32.0607 142.157 32.5621 141.773 32.9461C141.411 33.3301 140.909 33.5221 140.269 33.5221ZM155.957 17.2981C157.835 17.2981 159.232 17.8314 160.149 18.8981C161.067 19.9647 161.525 21.5754 161.525 23.7301V31.6021C161.525 32.1994 161.344 32.6687 160.981 33.0101C160.64 33.3514 160.16 33.5221 159.541 33.5221C158.923 33.5221 158.432 33.3514 158.069 33.0101C157.707 32.6687 157.525 32.1994 157.525 31.6021V23.9541C157.525 22.7381 157.291 21.8527 156.821 21.2981C156.373 20.7434 155.659 20.4661 154.677 20.4661C153.525 20.4661 152.597 20.8287 151.893 21.5541C151.211 22.2794 150.869 23.2501 150.869 24.4661V31.6021C150.869 32.1994 150.688 32.6687 150.325 33.0101C149.963 33.3514 149.472 33.5221 148.853 33.5221C148.235 33.5221 147.744 33.3514 147.381 33.0101C147.04 32.6687 146.869 32.1994 146.869 31.6021V19.2181C146.869 18.6634 147.051 18.2154 147.413 17.8741C147.776 17.5327 148.267 17.3621 148.885 17.3621C149.44 17.3621 149.888 17.5327 150.229 17.8741C150.592 18.1941 150.773 18.6207 150.773 19.1541V20.0181C151.307 19.1434 152.021 18.4714 152.917 18.0021C153.813 17.5327 154.827 17.2981 155.957 17.2981ZM172.724 33.5861C171.124 33.5861 169.716 33.2554 168.5 32.5941C167.305 31.9327 166.377 30.9834 165.716 29.7461C165.055 28.5087 164.724 27.0687 164.724 25.4261C164.724 23.7834 165.055 22.3541 165.716 21.1381C166.377 19.9007 167.305 18.9514 168.5 18.2901C169.716 17.6287 171.124 17.2981 172.724 17.2981C174.324 17.2981 175.721 17.6287 176.916 18.2901C178.132 18.9514 179.06 19.9007 179.7 21.1381C180.361 22.3541 180.692 23.7834 180.692 25.4261C180.692 27.0687 180.361 28.5087 179.7 29.7461C179.06 30.9834 178.132 31.9327 176.916 32.5941C175.721 33.2554 174.324 33.5861 172.724 33.5861ZM172.692 30.4821C173.993 30.4821 174.985 30.0554 175.668 29.2021C176.351 28.3487 176.692 27.0901 176.692 25.4261C176.692 23.7834 176.351 22.5354 175.668 21.6821C174.985 20.8074 174.004 20.3701 172.724 20.3701C171.444 20.3701 170.452 20.8074 169.748 21.6821C169.065 22.5354 168.724 23.7834 168.724 25.4261C168.724 27.0901 169.065 28.3487 169.748 29.2021C170.431 30.0554 171.412 30.4821 172.692 30.4821ZM194.656 18.5141C194.827 18.1301 195.051 17.8421 195.328 17.6501C195.627 17.4581 195.947 17.3621 196.288 17.3621C196.779 17.3621 197.216 17.5327 197.6 17.8741C198.006 18.1941 198.208 18.5994 198.208 19.0901C198.208 19.3461 198.144 19.6021 198.016 19.8581L192.096 32.2421C191.904 32.6474 191.627 32.9567 191.264 33.1701C190.923 33.3834 190.539 33.4901 190.112 33.4901C189.707 33.4901 189.312 33.3834 188.928 33.1701C188.566 32.9567 188.288 32.6474 188.096 32.2421L182.144 19.8581C182.038 19.6447 181.984 19.3994 181.984 19.1221C181.984 18.6314 182.187 18.2154 182.592 17.8741C183.019 17.5327 183.499 17.3621 184.032 17.3621C184.8 17.3621 185.366 17.7354 185.728 18.4821L190.208 28.3701L194.656 18.5141ZM207.153 17.2981C209.329 17.2981 210.94 17.8421 211.985 18.9301C213.052 19.9967 213.585 21.6287 213.585 23.8261V31.6341C213.585 32.2101 213.415 32.6687 213.073 33.0101C212.732 33.3301 212.263 33.4901 211.665 33.4901C211.111 33.4901 210.652 33.3194 210.289 32.9781C209.948 32.6367 209.777 32.1887 209.777 31.6341V30.9301C209.415 31.7621 208.839 32.4127 208.049 32.8821C207.281 33.3514 206.385 33.5861 205.361 33.5861C204.316 33.5861 203.367 33.3727 202.513 32.9461C201.66 32.5194 200.988 31.9327 200.497 31.1861C200.007 30.4394 199.761 29.6074 199.761 28.6901C199.761 27.5381 200.049 26.6314 200.625 25.9701C201.223 25.3087 202.183 24.8287 203.505 24.5301C204.828 24.2314 206.652 24.0821 208.977 24.0821H209.777V23.3461C209.777 22.3007 209.553 21.5434 209.105 21.0741C208.657 20.5834 207.932 20.3381 206.929 20.3381C206.311 20.3381 205.681 20.4341 205.041 20.6261C204.401 20.7967 203.644 21.0527 202.769 21.3941C202.215 21.6714 201.809 21.8101 201.553 21.8101C201.169 21.8101 200.849 21.6714 200.593 21.3941C200.359 21.1167 200.241 20.7541 200.241 20.3061C200.241 19.9434 200.327 19.6341 200.497 19.3781C200.689 19.1007 200.999 18.8447 201.425 18.6101C202.172 18.2047 203.057 17.8847 204.081 17.6501C205.127 17.4154 206.151 17.2981 207.153 17.2981ZM206.161 30.7061C207.228 30.7061 208.092 30.3541 208.753 29.6501C209.436 28.9247 209.777 27.9967 209.777 26.8661V26.1941H209.201C207.772 26.1941 206.663 26.2581 205.873 26.3861C205.084 26.5141 204.519 26.7381 204.177 27.0581C203.836 27.3781 203.665 27.8154 203.665 28.3701C203.665 29.0527 203.9 29.6181 204.369 30.0661C204.86 30.4927 205.457 30.7061 206.161 30.7061ZM229.395 28.9781C229.736 28.9781 230.024 29.1274 230.259 29.4261C230.493 29.7247 230.611 30.0981 230.611 30.5461C230.611 30.9087 230.525 31.2287 230.355 31.5061C230.205 31.7621 229.949 31.9967 229.587 32.2101C228.435 32.9781 227.037 33.4261 225.395 33.5541L225.267 34.6741C225.608 34.6314 225.853 34.6101 226.003 34.6101C226.664 34.6101 227.219 34.8021 227.667 35.1861C228.136 35.5914 228.371 36.1354 228.371 36.8181C228.371 37.6287 228.008 38.2901 227.283 38.8021C226.579 39.3141 225.576 39.5701 224.275 39.5701C223.379 39.5701 222.632 39.4634 222.035 39.2501C221.843 39.1647 221.693 39.0474 221.587 38.8981C221.48 38.7487 221.427 38.5781 221.427 38.3861C221.427 38.0874 221.512 37.8421 221.683 37.6501C221.875 37.4794 222.12 37.4367 222.419 37.5221C223.144 37.6927 223.741 37.7781 224.211 37.7781C225.277 37.7781 225.811 37.4581 225.811 36.8181C225.811 36.6047 225.736 36.4341 225.587 36.3061C225.437 36.1781 225.224 36.1141 224.947 36.1141C224.733 36.1141 224.456 36.1461 224.115 36.2101C223.773 36.2954 223.56 36.3381 223.475 36.3381C223.283 36.3381 223.123 36.2741 222.995 36.1461C222.888 36.0394 222.845 35.8901 222.867 35.6981L223.123 33.4901C221.16 33.1914 219.613 32.3381 218.483 30.9301C217.352 29.5007 216.787 27.6981 216.787 25.5221C216.787 23.9007 217.117 22.4714 217.779 21.2341C218.461 19.9754 219.411 19.0047 220.627 18.3221C221.843 17.6394 223.24 17.2981 224.819 17.2981C225.651 17.2981 226.483 17.4154 227.315 17.6501C228.168 17.8847 228.915 18.2047 229.555 18.6101C230.237 19.0581 230.579 19.6234 230.579 20.3061C230.579 20.7754 230.461 21.1594 230.227 21.4581C230.013 21.7354 229.725 21.8741 229.363 21.8741C229.128 21.8741 228.883 21.8207 228.627 21.7141C228.371 21.6074 228.115 21.4794 227.859 21.3301C227.389 21.0527 226.941 20.8394 226.515 20.6901C226.088 20.5194 225.597 20.4341 225.043 20.4341C223.72 20.4341 222.696 20.8714 221.971 21.7461C221.267 22.5994 220.915 23.8367 220.915 25.4581C220.915 27.0581 221.267 28.2954 221.971 29.1701C222.696 30.0234 223.72 30.4501 225.043 30.4501C225.576 30.4501 226.045 30.3754 226.451 30.2261C226.877 30.0554 227.347 29.8314 227.859 29.5541C228.179 29.3621 228.456 29.2234 228.691 29.1381C228.925 29.0314 229.16 28.9781 229.395 28.9781ZM240.06 17.2981C242.236 17.2981 243.846 17.8421 244.892 18.9301C245.958 19.9967 246.492 21.6287 246.492 23.8261V31.6341C246.492 32.2101 246.321 32.6687 245.98 33.0101C245.638 33.3301 245.169 33.4901 244.572 33.4901C244.017 33.4901 243.558 33.3194 243.196 32.9781C242.854 32.6367 242.684 32.1887 242.684 31.6341V30.9301C242.321 31.7621 241.745 32.4127 240.956 32.8821C240.188 33.3514 239.292 33.5861 238.268 33.5861C237.222 33.5861 236.273 33.3727 235.42 32.9461C234.566 32.5194 233.894 31.9327 233.404 31.1861C232.913 30.4394 232.668 29.6074 232.668 28.6901C232.668 27.5381 232.956 26.6314 233.532 25.9701C234.129 25.3087 235.089 24.8287 236.412 24.5301C237.734 24.2314 239.558 24.0821 241.884 24.0821H242.684V23.3461C242.684 22.3007 242.46 21.5434 242.012 21.0741C241.564 20.5834 240.838 20.3381 239.836 20.3381C239.217 20.3381 238.588 20.4341 237.948 20.6261C237.308 20.7967 236.55 21.0527 235.676 21.3941C235.121 21.6714 234.716 21.8101 234.46 21.8101C234.076 21.8101 233.756 21.6714 233.5 21.3941C233.265 21.1167 233.148 20.7541 233.148 20.3061C233.148 19.9434 233.233 19.6341 233.404 19.3781C233.596 19.1007 233.905 18.8447 234.332 18.6101C235.078 18.2047 235.964 17.8847 236.988 17.6501C238.033 17.4154 239.057 17.2981 240.06 17.2981ZM239.068 30.7061C240.134 30.7061 240.998 30.3541 241.66 29.6501C242.342 28.9247 242.684 27.9967 242.684 26.8661V26.1941H242.108C240.678 26.1941 239.569 26.2581 238.78 26.3861C237.99 26.5141 237.425 26.7381 237.084 27.0581C236.742 27.3781 236.572 27.8154 236.572 28.3701C236.572 29.0527 236.806 29.6181 237.276 30.0661C237.766 30.4927 238.364 30.7061 239.068 30.7061ZM242.396 14.6421C242.012 14.6421 241.628 14.5567 241.244 14.3861C240.881 14.2154 240.412 13.9594 239.836 13.6181C239.366 13.3407 238.993 13.1381 238.716 13.0101C238.438 12.8821 238.182 12.8181 237.948 12.8181C237.606 12.8181 237.329 12.9034 237.116 13.0741C236.924 13.2447 236.721 13.4901 236.508 13.8101C236.337 14.0661 236.188 14.2581 236.06 14.3861C235.932 14.4927 235.772 14.5461 235.58 14.5461C235.345 14.5461 235.142 14.4501 234.972 14.2581C234.822 14.0447 234.748 13.7781 234.748 13.4581C234.748 13.0314 234.876 12.5621 235.132 12.0501C235.388 11.5167 235.74 11.0687 236.188 10.7061C236.657 10.3221 237.169 10.1301 237.724 10.1301C238.108 10.1301 238.481 10.2154 238.844 10.3861C239.228 10.5567 239.708 10.8127 240.284 11.1541C240.753 11.4314 241.126 11.6341 241.404 11.7621C241.681 11.8901 241.937 11.9541 242.172 11.9541C242.513 11.9541 242.78 11.8687 242.972 11.6981C243.185 11.5274 243.398 11.2821 243.612 10.9621C243.782 10.7061 243.932 10.5247 244.06 10.4181C244.188 10.2901 244.348 10.2261 244.54 10.2261C244.796 10.2261 244.998 10.3327 245.148 10.5461C245.297 10.7381 245.372 10.9941 245.372 11.3141C245.372 11.7407 245.244 12.2207 244.988 12.7541C244.732 13.2661 244.369 13.7141 243.9 14.0981C243.452 14.4607 242.95 14.6421 242.396 14.6421ZM257.693 33.5861C256.093 33.5861 254.685 33.2554 253.469 32.5941C252.274 31.9327 251.346 30.9834 250.685 29.7461C250.023 28.5087 249.693 27.0687 249.693 25.4261C249.693 23.7834 250.023 22.3541 250.685 21.1381C251.346 19.9007 252.274 18.9514 253.469 18.2901C254.685 17.6287 256.093 17.2981 257.693 17.2981C259.293 17.2981 260.69 17.6287 261.885 18.2901C263.101 18.9514 264.029 19.9007 264.669 21.1381C265.33 22.3541 265.661 23.7834 265.661 25.4261C265.661 27.0687 265.33 28.5087 264.669 29.7461C264.029 30.9834 263.101 31.9327 261.885 32.5941C260.69 33.2554 259.293 33.5861 257.693 33.5861ZM257.661 30.4821C258.962 30.4821 259.954 30.0554 260.637 29.2021C261.319 28.3487 261.661 27.0901 261.661 25.4261C261.661 23.7834 261.319 22.5354 260.637 21.6821C259.954 20.8074 258.973 20.3701 257.693 20.3701C256.413 20.3701 255.421 20.8074 254.717 21.6821C254.034 22.5354 253.693 23.7834 253.693 25.4261C253.693 27.0901 254.034 28.3487 254.717 29.2021C255.399 30.0554 256.381 30.4821 257.661 30.4821Z" fill="#9D65A4"/>
</svg>
